<?xml version="1.0" encoding="utf-8"?><svg viewBox="0 0 37 32" xmlns="http://www.w3.org/2000/svg" xmlns:xlink="http://www.w3.org/1999/xlink"><style>:root>svg{display:none}:root>svg:target{display:block}</style><svg viewBox="0 0 10 18" id="arrow" xmlns="http://www.w3.org/2000/svg"><path d="M9.384 16.955a1.25 1.25 0 000-1.767L3.196 9l6.188-6.187a1.25 1.25 0 00-1.768-1.768L.545 8.116a1.25 1.25 0 000 1.768l7.071 7.071a1.25 1.25 0 001.768 0z"/></svg><svg viewBox="0 0 12 12" id="check" xmlns="http://www.w3.org/2000/svg"><path fill-rule="evenodd" clip-rule="evenodd" d="M10.773 2.556a.75.75 0 010 1.06L5.152 9.238a.8.8 0 01-1.132 0L1.227 6.445a.75.75 0 111.06-1.06l2.299 2.298 5.126-5.127a.75.75 0 011.061 0z"/></svg><svg viewBox="0 0 10 10" id="close" xmlns="http://www.w3.org/2000/svg"><path d="M9.375 9.375L.625.625m8.75 0l-8.75 8.75"/></svg><svg viewBox="0 0 20 20" id="copy" xmlns="http://www.w3.org/2000/svg"><path d="M15.938 18.75h-8.75a2.812 2.812 0 01-2.813-2.813v-8.75a2.813 2.813 0 012.813-2.812h8.75a2.812 2.812 0 012.812 2.813v8.75a2.812 2.812 0 01-2.813 2.812z"/><path d="M6.25 3.125h9.214a2.817 2.817 0 00-2.652-1.875h-8.75A2.813 2.813 0 001.25 4.063v8.75a2.817 2.817 0 001.875 2.651V6.25A3.125 3.125 0 016.25 3.125z"/></svg><svg viewBox="0 0 7 9" id="lock" xmlns="http://www.w3.org/2000/svg"><path d="M4.872 3.383l-.246.044-.087-1.247a1.352 1.352 0 00-.507-.982A1.352 1.352 0 002.957.944a1.67 1.67 0 00-1.014.622 1.67 1.67 0 00-.359 1.135l.087 1.247-.246.043a1.114 1.114 0 00-.675.415c-.172.22-.258.492-.24.756l.192 2.744c.019.264.14.5.338.654a.902.902 0 00.717.17l3.446-.608c.261-.047.504-.196.676-.415a1.12 1.12 0 00.24-.756l-.192-2.744a.902.902 0 00-.338-.654.902.902 0 00-.717-.17zm-.739.13l-1.97.348-.086-1.247a1.113 1.113 0 01.239-.756c.171-.22.414-.37.676-.415a.901.901 0 01.716.17c.198.154.32.39.338.654l.087 1.247z"/></svg><svg viewBox="0 0 18 16" id="not-icon" xmlns="http://www.w3.org/2000/svg"><path d="M17.02 12.427L9.755.857a.98.98 0 00-1.662.005L.971 12.432a2.05 2.05 0 00-.304 1.078 2.123 2.123 0 002.151 2.088h12.374c1.18 0 2.141-.931 2.141-2.083 0-.383-.108-.76-.314-1.088m-14.3.386l5.3-8.17v8.994H3.273c-.548 0-.794-.363-.553-.824m7.26-8.17l5.3 8.17c.244.461-.006.824-.554.824H9.98V4.643z"/></svg><svg viewBox="0 0 37 32" id="pyramid-lock" xmlns="http://www.w3.org/2000/svg"><path d="M20.255 3.735c-.165-.298-.617-.09-.497.23l8.419 22.258c.043.113.122.21.226.273l5.81 3.564c.24.147.52-.12.383-.366L20.255 3.734z"/><path d="M6.06 28.404c-.338.033-.327.53.012.547l27.916 1.448c.594.031.805-.774.272-1.038l-5.9-2.927a1.096 1.096 0 00-.592-.11L6.06 28.405z"/><path d="M19.337 3.759a.548.548 0 01.994.077l8.132 22.083a.548.548 0 01-.452.734L6.205 29.131a.548.548 0 01-.54-.811L19.336 3.759z"/><defs><linearGradient id="ga" x1="28.058" y1="26.004" x2="30.967" y2="15.852" gradientUnits="userSpaceOnUse"><stop stop-color="#6D6D6D"/><stop offset="1" stop-color="#292929"/></linearGradient><linearGradient id="gb" x1="6.532" y1="28.593" x2="33.108" y2="29.914" gradientUnits="userSpaceOnUse"><stop stop-color="#2D2D2D"/><stop offset="1" stop-color="#545454"/></linearGradient><linearGradient id="gc" x1="5.859" y1="31.748" x2="23.459" y2="12.477" gradientUnits="userSpaceOnUse"><stop stop-color="#7E7E7E"/><stop offset="1" stop-color="#2C2C2C"/></linearGradient></defs></svg><svg viewBox="0 0 18 14" id="telegram" xmlns="http://www.w3.org/2000/svg"><path d="M16.22.097L1.447 5.795C.437 6.2.443 6.762 1.26 7.013l3.793 1.184 8.777-5.538c.415-.252.794-.117.482.16l-7.11 6.418H7.2h.002l-.262 3.91c.383 0 .552-.175.767-.383l1.843-1.791 3.832 2.83c.707.39 1.215.19 1.39-.654L17.29 1.292c.258-1.032-.394-1.5-1.068-1.195z"/></svg><svg viewBox="0 0 20 20" id="wallet" xmlns="http://www.w3.org/2000/svg"><path d="M16.25 5.625H3.75c-1.036 0-1.875.84-1.875 1.875V15c0 1.035.84 1.875 1.875 1.875h12.5c1.035 0 1.875-.84 1.875-1.875V7.5c0-1.036-.84-1.875-1.875-1.875z"/><path d="M16.069 5.625V4.453a1.952 1.952 0 00-2.319-1.918L3.463 4.291a1.953 1.953 0 00-1.588 1.92v1.914M14.375 12.5a1.25 1.25 0 110-2.5 1.25 1.25 0 010 2.5z"/></svg></svg>